<?xml version="1.0" encoding="utf-8"?>
<!-- Generator: Adobe Illustrator 19.1.0, SVG Export Plug-In . SVG Version: 6.00 Build 0)  -->
<svg version="1.1" id="Layer_4" xmlns="http://www.w3.org/2000/svg" xmlns:xlink="http://www.w3.org/1999/xlink" x="0px" y="0px"
	 viewBox="0 0 32 32" style="enable-background:new 0 0 32 32;" xml:space="preserve">
<g>
	<path d="M20,9.3l-0.1,0.6c-0.2,0-0.4,0-0.7,0.1s-0.5,0.1-0.7,0.1c-0.2,0.1-0.4,0.2-0.5,0.4s-0.2,0.3-0.2,0.5l-2.1,9.1
		c0,0,0,0.1,0,0.1s0,0.1,0,0.1c0,0.1,0,0.2,0.1,0.3c0.1,0.1,0.2,0.2,0.3,0.2c0.1,0,0.3,0.1,0.6,0.1s0.5,0.1,0.7,0.1l-0.1,0.6h-5.6
		l0.1-0.6c0.2,0,0.4,0,0.7-0.1s0.5-0.1,0.7-0.1c0.2-0.1,0.4-0.2,0.5-0.3s0.2-0.3,0.2-0.5l2.1-9.1c0-0.1,0-0.1,0-0.2s0-0.1,0-0.2
		c0-0.1,0-0.2-0.1-0.3s-0.2-0.2-0.3-0.2S15.1,10,14.8,10s-0.5-0.1-0.6-0.1l0.1-0.6H20z"/>
</g>
</svg>
