<svg id="Layer_11" data-name="Layer 11" xmlns="http://www.w3.org/2000/svg" viewBox="0 0 32 32"><g transform="translate(3.5 9.5)"><path d="M19,14.48a4,4,0,0,0-.38-1.6,4.47,4.47,0,0,0-1.23-1.6,4.38,4.38,0,0,0-2.79-1H7.16A4.42,4.42,0,0,0,5,18.59a4.27,4.27,0,0,0,2.11.54l4.53,0a5.65,5.65,0,0,1-.27-1.58H7.16A2.69,2.69,0,0,1,5.58,17a4.38,4.38,0,0,1-.42-.35,2.75,2.75,0,0,1-.83-2,2.83,2.83,0,0,1,2.83-2.83h7.42a.65.65,0,0,1,.18,0,2.75,2.75,0,0,1,2,1,2.57,2.57,0,0,1,.62,1.55.62.62,0,0,1,0,.24,2.74,2.74,0,0,1-.4,1.44.56.56,0,0,1-.08.13,3,3,0,0,1-.35.42,1.45,1.45,0,0,1-.34.29v0a.93.93,0,0,0,0,.3A1.22,1.22,0,0,0,17,18.43a4.5,4.5,0,0,0,1.84-2.36A4.73,4.73,0,0,0,19,14.71,1.22,1.22,0,0,0,19,14.48Z" transform="translate(-2.73 -10.29)"/><path d="M24.84,12.88H20.31a5.87,5.87,0,0,1,.27,1.6h4.26a2.82,2.82,0,1,1,0,5.64H17.4a.54.54,0,0,1-.16,0,2.67,2.67,0,0,1-2-1,2.57,2.57,0,0,1-.62-1.55.51.51,0,0,1,0-.22A2.66,2.66,0,0,1,15,15.85a2.51,2.51,0,0,1,.75-.83.93.93,0,0,0,0-.3A1.22,1.22,0,0,0,15,13.58h0a4.45,4.45,0,0,0-1.82,2.35A4.84,4.84,0,0,0,13,17.3a1.06,1.06,0,0,0,0,.22,4,4,0,0,0,.38,1.6,4.47,4.47,0,0,0,1.23,1.6,4.34,4.34,0,0,0,2.78,1h7.44a4.41,4.41,0,1,0,0-8.83Zm-7.44,1.6H19a4,4,0,0,0-.38-1.6H17.4a4.35,4.35,0,0,0-.65,0,2.57,2.57,0,0,1,.62,1.55Z" transform="translate(-2.73 -10.29)"/></g></svg>