<svg id="Layer_12" data-name="Layer 12" xmlns="http://www.w3.org/2000/svg" viewBox="0 0 32 32"><g transform="translate(7 3)"><path fill-opacity=".7" d="M17.73,22.38H12.48v-.77l.89-.12q.37-.06.37-.3a.82.82,0,0,0-.12-.32q-.12-.22-.23-.41l-.8-1.21q-.51-.76-1.24-1.82-.6.75-1.12,1.47L9.17,20.41A2.32,2.32,0,0,0,9,20.7a.67.67,0,0,0-.09.28q0,.26.33.42a2.84,2.84,0,0,0,1,.23v.74H6v-.72a4.49,4.49,0,0,0,1.27-.56,4.4,4.4,0,0,0,.89-.82l1-1.28q.65-.82,1.67-2.21L9.39,14.72,8,12.69A2.78,2.78,0,0,0,7.29,12a1.9,1.9,0,0,0-1.1-.27v-.77h5v.77a5.68,5.68,0,0,0-.73,0c-.24,0-.36.1-.36.21a.49.49,0,0,0,.07.23,3.12,3.12,0,0,0,.17.28l.79,1.22q.54.82,1.16,1.74l.95-1.3q.54-.74,1-1.42a1.47,1.47,0,0,0,.09-.2.67.67,0,0,0,0-.24q0-.24-.4-.39a4.23,4.23,0,0,0-.76-.2v-.74h4.22v.72A4.93,4.93,0,0,0,16,12.2a3.65,3.65,0,0,0-.85.74q-.38.48-.91,1.17l-1.48,2,1.72,2.44q.66,1,1.33,2a3,3,0,0,0,.75.81,2.15,2.15,0,0,0,1.13.34Z" transform="translate(-6.01 -3.61)"/><path d="M26.37,12h-7.1V11a4.44,4.44,0,0,1,.57-.53q.36-.29.86-.63.3-.2.73-.45l1-.53a7.32,7.32,0,0,0,.92-.56,2.94,2.94,0,0,0,.59-.6,1.89,1.89,0,0,0,.28-.59,3.66,3.66,0,0,0,.11-1,1.75,1.75,0,0,0-.51-1.39,1.91,1.91,0,0,0-1.3-.44,2.29,2.29,0,0,0-.93.19,1.45,1.45,0,0,0-.66.53l.13.58a2.8,2.8,0,0,1,.08.65.68.68,0,0,1-.24.51,1,1,0,0,1-.71.22.7.7,0,0,1-.58-.26,1.11,1.11,0,0,1-.2-.7,1.69,1.69,0,0,1,.23-.82,2.64,2.64,0,0,1,.65-.76,3.33,3.33,0,0,1,1-.55,4,4,0,0,1,1.33-.21,4,4,0,0,1,2.47.69A2.21,2.21,0,0,1,26,6.16a3,3,0,0,1-.16,1,2.06,2.06,0,0,1-.53.8,4,4,0,0,1-.94.66q-.54.28-1.64.77-.66.3-1.23.62a6.39,6.39,0,0,0-.93.62h5.83Z" transform="translate(-6.01 -3.61)"/></g></svg>