<svg version="1.1" id="Layer_1" xmlns="http://www.w3.org/2000/svg" xmlns:xlink="http://www.w3.org/1999/xlink" x="0px" y="0px"
	 viewBox="0 0 745 713" style="enable-background:new 0 0 745 713;" xml:space="preserve">
<style type="text/css">
	.st0{fill:#724693;}
	.st1{fill:#B0B0B1;}
	.st2{fill:#FFFFFF;}
	.st3{font-family:'NotoSans-Bold';}
	.st4{font-size:126.3865px;}
</style>
<path class="st0" d="M531.6,537H198.4c-9.6,0-17.4-7.8-17.4-17.4V188.4c0-9.6,7.8-17.4,17.4-17.4h333.3c9.6,0,17.4,7.8,17.4,17.4
	v331.3C549,529.2,541.2,537,531.6,537z"/>
<path class="st1" d="M601.2,124H127.8c-6,0-10.8-4.8-10.8-10.8V99.8c0-6,4.8-10.8,10.8-10.8h473.4c6,0,10.8,4.8,10.8,10.8v13.4
	C612,119.2,607.2,124,601.2,124z"/>
<path class="st1" d="M277.2,62H128.8c-6,0-10.8-4.8-10.8-10.8V37.8c0-6,4.8-10.8,10.8-10.8h148.4c6,0,10.8,4.8,10.8,10.8v13.4
	C288,57.2,283.2,62,277.2,62z"/>
<path class="st1" d="M601.2,62H341.8c-6,0-10.8-4.8-10.8-10.8V37.8c0-6,4.8-10.8,10.8-10.8h259.4c6,0,10.8,4.8,10.8,10.8v13.4
	C612,57.2,607.2,62,601.2,62z"/>
<path class="st1" d="M373.2,617H129.8c-6,0-10.8-4.8-10.8-10.8v-13.4c0-6,4.8-10.8,10.8-10.8h243.4c6,0,10.8,4.8,10.8,10.8v13.4
	C384,612.2,379.2,617,373.2,617z"/>
<path class="st1" d="M600.2,615.7H460.3c-6,0-10.8-4.8-10.8-10.8v-13.4c0-6,4.8-10.8,10.8-10.8h139.9c6,0,10.8,4.8,10.8,10.8v13.4
	C611,610.8,606.2,615.7,600.2,615.7z"/>
<path class="st1" d="M234.2,676.1H129.5c-6,0-10.8-4.8-10.8-10.8v-13.4c0-6,4.8-10.8,10.8-10.8h104.7c6,0,10.8,4.8,10.8,10.8v13.4
	C245,671.3,240.2,676.1,234.2,676.1z"/>
<path class="st1" d="M601.2,676.1H324.8c-6,0-10.8-4.8-10.8-10.8v-13.4c0-6,4.8-10.8,10.8-10.8h276.4c6,0,10.8,4.8,10.8,10.8v13.4
	C612,671.3,607.2,676.1,601.2,676.1z"/>
<text transform="matrix(1.0574 0 0 1 283.9707 389.3047)" class="st2 st3 st4">px</text>
</svg>
