<svg version="1.1" id="Layer_1" xmlns="http://www.w3.org/2000/svg" xmlns:xlink="http://www.w3.org/1999/xlink" x="0px" y="0px"
	 viewBox="0 0 745 713" style="enable-background:new 0 0 745 713;" xml:space="preserve">
<style type="text/css">
	.st0{fill:#724693;}
	.st1{fill:#B0B0B1;}
	.st2{enable-background:new    ;}
	.st3{fill:#FFFFFF;}
</style>
<path class="st0" d="M530.3,534.9H197.1c-9.6,0-17.4-7.8-17.4-17.4V186.3c0-9.6,7.8-17.4,17.4-17.4h333.3c9.6,0,17.4,7.8,17.4,17.4
	v331.3C547.7,527.1,539.9,534.9,530.3,534.9z"/>
<path class="st1" d="M601.5,129.6H128.7c-6,0-10.8-3.4-10.8-7.7v-9.6c0-4.3,4.8-7.7,10.8-7.7h472.9c6,0,10.8,3.4,10.8,7.7v9.6
	C612.3,126.1,607.5,129.6,601.5,129.6z"/>
<path class="st1" d="M277.2,65.5H128.8c-6,0-10.8-3.4-10.8-7.7v-9.6c0-4.3,4.8-7.7,10.8-7.7h148.4c6,0,10.8,3.4,10.8,7.7v9.6
	C288,62,283.2,65.5,277.2,65.5z"/>
<path class="st1" d="M601.2,65.5H341.8c-6,0-10.8-3.4-10.8-7.7v-9.6c0-4.3,4.8-7.7,10.8-7.7h259.4c6,0,10.8,3.4,10.8,7.7v9.6
	C612,62,607.2,65.5,601.2,65.5z"/>
<path class="st1" d="M373.2,612H129.8c-6,0-10.8-3.4-10.8-7.7v-9.6c0-4.3,4.8-7.7,10.8-7.7h243.4c6,0,10.8,3.4,10.8,7.7v9.6
	C384,608.6,379.2,612,373.2,612z"/>
<path class="st1" d="M600.2,610.7H460.3c-6,0-10.8-3.4-10.8-7.7v-9.6c0-4.3,4.8-7.7,10.8-7.7h139.9c6,0,10.8,3.4,10.8,7.7v9.6
	C611,607.2,606.2,610.7,600.2,610.7z"/>
<path class="st1" d="M234.2,671.1H129.5c-6,0-10.8-3.4-10.8-7.7v-9.6c0-4.3,4.8-7.7,10.8-7.7h104.7c6,0,10.8,3.4,10.8,7.7v9.6
	C245,667.7,240.2,671.1,234.2,671.1z"/>
<path class="st1" d="M601.2,671.1H324.8c-6,0-10.8-3.4-10.8-7.7v-9.6c0-4.3,4.8-7.7,10.8-7.7h276.4c6,0,10.8,3.4,10.8,7.7v9.6
	C612,667.7,607.2,671.1,601.2,671.1z"/>
<g class="st2">
	<path class="st3" d="M314.8,325.1c0.4,0.4,0.7,1.1,0.7,2.1v3.2c0,0.6,0.3,0.9,0.8,0.9c0.4,0,0.8-0.2,1.2-0.5
		c2.8-2.4,5.6-4.3,8.5-5.6c2.9-1.3,6.4-2,10.6-2c8,0,14.5,2.9,19.4,8.7c4.9,5.8,7.4,14.4,7.4,25.7c0,11.8-2.6,20.6-7.7,26.4
		c-5.1,5.8-11.8,8.7-20.1,8.7c-3.4,0-6.5-0.5-9.4-1.5c-2.9-1-5.6-2.7-8.2-4.9c-1.1-0.8-1.7-1.3-2-1.3c-0.4,0-0.7,0.6-0.7,1.9v23
		c0,1.6-0.8,2.4-2.3,2.4h-19.2c-1.5,0-2.3-0.8-2.3-2.5v-82.3c0-1.1,0.2-1.9,0.7-2.3c0.5-0.5,1.4-0.7,2.6-0.7h17.4
		C313.5,324.4,314.3,324.7,314.8,325.1z M326.4,378.8c4.2,0,7.4-1.7,9.6-5c2.2-3.3,3.3-9,3.3-16.9c0-7.3-1.1-12.5-3.3-15.4
		c-2.2-2.9-5.4-4.4-9.6-4.4c-3.1,0-5.7,0.8-7.9,2.5c-2.1,1.7-3.2,3.7-3.2,5.9v27.6C318.5,376.9,322.1,378.8,326.4,378.8z"/>
	<path class="st3" d="M440.3,390c0,0.9-1,1.4-2.9,1.4h-19.8c-2.4,0-4.1-0.8-5.1-2.3l-12-16.3c-0.8-1.1-1.4-1.6-1.7-1.6
		c-0.4,0-0.9,0.5-1.7,1.5l-12.2,16.4c-1,1.5-2.7,2.3-5.1,2.3h-12.6c-1.1,0-1.9-0.2-2.6-0.5c-0.7-0.3-1-0.8-1-1.5
		c0-0.9,0.7-2.2,2-3.8l20.8-25.8c0.7-0.8,1.1-1.5,1.1-1.9c0-0.6-0.4-1.3-1.1-2.3l-21.1-27.3c-0.4-0.6-0.7-1.1-0.7-1.6
		c0-0.7,0.3-1.2,0.8-1.6c0.5-0.4,1.2-0.6,2.1-0.6h18.8c1.3,0,2.4,0.2,3.1,0.5c0.7,0.3,1.3,0.9,1.9,1.8l10.4,14.4
		c0.4,0.7,0.8,1,1.2,1c0.4,0,0.8-0.3,1.2-1l9.8-14.4c0.6-0.8,1.3-1.4,1.9-1.8c0.7-0.3,1.7-0.5,3-0.5h13.9c1.7,0,2.5,0.5,2.5,1.4
		c0,0.6-0.3,1.2-0.8,1.9l-19.1,24.5c-0.6,0.7-0.9,1.3-0.9,1.9c0,0.6,0.4,1.3,1.1,2.3l22.9,30.1C439.7,388.2,440.3,389.4,440.3,390z"
		/>
</g>
</svg>
