<svg version="1.1" id="Layer_1" xmlns="http://www.w3.org/2000/svg" xmlns:xlink="http://www.w3.org/1999/xlink" x="0px" y="0px"
	 viewBox="0 0 836 536" style="enable-background:new 0 0 836 536;" xml:space="preserve">
<style type="text/css">
	.st0{fill:#DDDCDD;}
</style>
<g>
	<path class="st0" d="M805.3,12.7c10.2,0,18.4,8.3,18.4,18.4v473.1c0,10.2-8.3,18.4-18.4,18.4H30.2c-10.2,0-18.4-8.3-18.4-18.4V31.2
		c0-10.2,8.3-18.4,18.4-18.4H805.3 M805.3,6.7H30.2C16.7,6.7,5.7,17.7,5.7,31.2v473.1c0,13.5,10.9,24.4,24.4,24.4h775.1
		c13.5,0,24.4-10.9,24.4-24.4V31.2C829.7,17.7,818.8,6.7,805.3,6.7L805.3,6.7z"/>
</g>
<g>
	<path class="st0" d="M825,85H9V26.6C9,17.4,16.4,10,25.6,10h773.6c14.2,0,25.7,11.5,25.7,25.7V85z"/>
</g>
<rect x="175" y="86" class="st0" width="7" height="438"/>
<path class="st0" d="M467.2,173H212.8c-2.7,0-4.8-2.2-4.8-4.8v-23.4c0-2.7,2.2-4.8,4.8-4.8h254.4c2.7,0,4.8,2.2,4.8,4.8v23.4
	C472,170.8,469.8,173,467.2,173z"/>
<path class="st0" d="M792.2,173H519.8c-2.7,0-4.8-2.2-4.8-4.8v-23.4c0-2.7,2.2-4.8,4.8-4.8h272.4c2.7,0,4.8,2.2,4.8,4.8v23.4
	C797,170.8,794.8,173,792.2,173z"/>
<path class="st0" d="M674.2,247H213.8c-2.7,0-4.8-2.2-4.8-4.8v-23.4c0-2.7,2.2-4.8,4.8-4.8h460.4c2.7,0,4.8,2.2,4.8,4.8v23.4
	C679,244.8,676.8,247,674.2,247z"/>
<path class="st0" d="M350.2,326H213.8c-2.7,0-4.8-2.2-4.8-4.8v-23.4c0-2.7,2.2-4.8,4.8-4.8h136.4c2.7,0,4.8,2.2,4.8,4.8v23.4
	C355,323.8,352.8,326,350.2,326z"/>
<path class="st0" d="M545.2,326H395.8c-2.7,0-4.8-2.2-4.8-4.8v-23.4c0-2.7,2.2-4.8,4.8-4.8h149.4c2.7,0,4.8,2.2,4.8,4.8v23.4
	C550,323.8,547.8,326,545.2,326z"/>
<path class="st0" d="M794.2,326H607.8c-2.7,0-4.8-2.2-4.8-4.8v-23.4c0-2.7,2.2-4.8,4.8-4.8h186.4c2.7,0,4.8,2.2,4.8,4.8v23.4
	C799,323.8,796.8,326,794.2,326z"/>
<path class="st0" d="M740.2,401H214.8c-2.7,0-4.8-2.2-4.8-4.8v-23.4c0-2.7,2.2-4.8,4.8-4.8h525.4c2.7,0,4.8,2.2,4.8,4.8v23.4
	C745,398.8,742.8,401,740.2,401z"/>
<path class="st0" d="M437.2,476H214.8c-2.7,0-4.8-2.2-4.8-4.8v-23.4c0-2.7,2.2-4.8,4.8-4.8h222.4c2.7,0,4.8,2.2,4.8,4.8v23.4
	C442,473.8,439.8,476,437.2,476z"/>
</svg>
