<svg version="1.1" id="Layer_1" xmlns="http://www.w3.org/2000/svg" xmlns:xlink="http://www.w3.org/1999/xlink" x="0px" y="0px"
	 viewBox="0 0 745 713" style="enable-background:new 0 0 745 713;" xml:space="preserve">
<style type="text/css">
	.st0{fill:#724693;}
	.st1{fill:#FFFFFF;}
	.st2{fill:#B0B0B1;}
</style>
<path class="st0" d="M716.6,537H28.4c-9.6,0-17.4-7.8-17.4-17.4V188.4c0-9.6,7.8-17.4,17.4-17.4h688.3c9.6,0,17.4,7.8,17.4,17.4
	v331.3C734,529.2,726.2,537,716.6,537z"/>
<path class="st1" d="M28.4,368.5l-5.1-4.7c-2.1-2-2.3-5.3-0.3-7.4l43.4-47.5c2-2.1,5.3-2.3,7.4-0.3l5.1,4.7c2.1,2,2.3,5.3,0.3,7.4
	l-43.4,47.5C33.9,370.3,30.6,370.4,28.4,368.5z"/>
<path class="st1" d="M23.2,356.8l4.7-5.1c2-2.1,5.3-2.3,7.4-0.3l47.5,43.5c2.1,2,2.3,5.3,0.3,7.4l-4.7,5.1c-2,2.1-5.3,2.3-7.4,0.3
	l-47.5-43.5C21.4,362.3,21.2,359,23.2,356.8z"/>
<path class="st1" d="M712.7,367.1l5.1-4.7c2.1-2,2.3-5.3,0.3-7.4l-43.4-47.5c-2-2.1-5.3-2.3-7.4-0.3l-5.1,4.7
	c-2.1,2-2.3,5.3-0.3,7.4l43.4,47.5C707.2,369,710.5,369.1,712.7,367.1z"/>
<path class="st1" d="M717.9,355.5l-4.7-5.1c-2-2.1-5.3-2.3-7.4-0.3l-47.5,43.5c-2.1,2-2.3,5.3-0.3,7.4l4.7,5.1
	c2,2.1,5.3,2.3,7.4,0.3l47.5-43.5C719.7,361,719.9,357.6,717.9,355.5z"/>
<path class="st2" d="M601.2,119H127.8c-6,0-10.8-3.4-10.8-7.7v-9.6c0-4.3,4.8-7.7,10.8-7.7h473.4c6,0,10.8,3.4,10.8,7.7v9.6
	C612,115.6,607.2,119,601.2,119z"/>
<path class="st2" d="M277.2,57H128.8c-6,0-10.8-3.4-10.8-7.7v-9.6c0-4.3,4.8-7.7,10.8-7.7h148.4c6,0,10.8,3.4,10.8,7.7v9.6
	C288,53.6,283.2,57,277.2,57z"/>
<path class="st2" d="M601.2,57H341.8c-6,0-10.8-3.4-10.8-7.7v-9.6c0-4.3,4.8-7.7,10.8-7.7h259.4c6,0,10.8,3.4,10.8,7.7v9.6
	C612,53.6,607.2,57,601.2,57z"/>
<path class="st2" d="M373.2,612H129.8c-6,0-10.8-3.4-10.8-7.7v-9.6c0-4.3,4.8-7.7,10.8-7.7h243.4c6,0,10.8,3.4,10.8,7.7v9.6
	C384,608.6,379.2,612,373.2,612z"/>
<path class="st2" d="M600.2,610.7H460.3c-6,0-10.8-3.4-10.8-7.7v-9.6c0-4.3,4.8-7.7,10.8-7.7h139.9c6,0,10.8,3.4,10.8,7.7v9.6
	C611,607.2,606.2,610.7,600.2,610.7z"/>
<path class="st2" d="M234.2,671.1H129.5c-6,0-10.8-3.4-10.8-7.7v-9.6c0-4.3,4.8-7.7,10.8-7.7h104.7c6,0,10.8,3.4,10.8,7.7v9.6
	C245,667.7,240.2,671.1,234.2,671.1z"/>
<path class="st2" d="M601.2,671.1H324.8c-6,0-10.8-3.4-10.8-7.7v-9.6c0-4.3,4.8-7.7,10.8-7.7h276.4c6,0,10.8,3.4,10.8,7.7v9.6
	C612,667.7,607.2,671.1,601.2,671.1z"/>
</svg>
