<svg version="1.1" id="Layer_1" xmlns="http://www.w3.org/2000/svg" xmlns:xlink="http://www.w3.org/1999/xlink" x="0px" y="0px"
	 viewBox="0 0 745 713" style="enable-background:new 0 0 745 713;" xml:space="preserve">
<style type="text/css">
	.st0{fill:#724693;}
	.st1{fill:#FFFFFF;}
	.st2{fill:#B0B0B1;}
</style>
<path class="st0" d="M594.6,541H134.4c-9.6,0-17.4-7.8-17.4-17.4V179.4c0-9.6,7.8-17.4,17.4-17.4h460.3c9.6,0,17.4,7.8,17.4,17.4
	v344.3C612,533.2,604.2,541,594.6,541z"/>
<path class="st1" d="M134.4,366.5l-5.1-4.7c-2.1-2-2.3-5.3-0.3-7.4l43.4-47.5c2-2.1,5.3-2.3,7.4-0.3l5.1,4.7c2.1,2,2.3,5.3,0.3,7.4
	l-43.4,47.5C139.9,368.3,136.6,368.4,134.4,366.5z"/>
<path class="st1" d="M129.2,354.8l4.7-5.1c2-2.1,5.3-2.3,7.4-0.3l47.5,43.5c2.1,2,2.3,5.3,0.3,7.4l-4.7,5.1c-2,2.1-5.3,2.3-7.4,0.3
	l-47.5-43.5C127.4,360.3,127.2,357,129.2,354.8z"/>
<path class="st1" d="M596.7,367.1l5.1-4.7c2.1-2,2.3-5.3,0.3-7.4l-43.4-47.5c-2-2.1-5.3-2.3-7.4-0.3l-5.1,4.7
	c-2.1,2-2.3,5.3-0.3,7.4l43.4,47.5C591.2,369,594.5,369.1,596.7,367.1z"/>
<path class="st1" d="M601.9,355.5l-4.7-5.1c-2-2.1-5.3-2.3-7.4-0.3l-47.5,43.5c-2.1,2-2.3,5.3-0.3,7.4l4.7,5.1
	c2,2.1,5.3,2.3,7.4,0.3l47.5-43.5C603.7,361,603.9,357.6,601.9,355.5z"/>
<path class="st2" d="M601.2,124H127.8c-6,0-10.8-4.8-10.8-10.8V99.8c0-6,4.8-10.8,10.8-10.8h473.4c6,0,10.8,4.8,10.8,10.8v13.4
	C612,119.2,607.2,124,601.2,124z"/>
<path class="st2" d="M277.2,62H128.8c-6,0-10.8-4.8-10.8-10.8V37.8c0-6,4.8-10.8,10.8-10.8h148.4c6,0,10.8,4.8,10.8,10.8v13.4
	C288,57.2,283.2,62,277.2,62z"/>
<path class="st2" d="M601.2,62H341.8c-6,0-10.8-4.8-10.8-10.8V37.8c0-6,4.8-10.8,10.8-10.8h259.4c6,0,10.8,4.8,10.8,10.8v13.4
	C612,57.2,607.2,62,601.2,62z"/>
<path class="st2" d="M373.2,617H129.8c-6,0-10.8-4.8-10.8-10.8v-13.4c0-6,4.8-10.8,10.8-10.8h243.4c6,0,10.8,4.8,10.8,10.8v13.4
	C384,612.2,379.2,617,373.2,617z"/>
<path class="st2" d="M600.2,615.7H460.3c-6,0-10.8-4.8-10.8-10.8v-13.4c0-6,4.8-10.8,10.8-10.8h139.9c6,0,10.8,4.8,10.8,10.8v13.4
	C611,610.8,606.2,615.7,600.2,615.7z"/>
<path class="st2" d="M234.2,676.1H129.5c-6,0-10.8-4.8-10.8-10.8v-13.4c0-6,4.8-10.8,10.8-10.8h104.7c6,0,10.8,4.8,10.8,10.8v13.4
	C245,671.3,240.2,676.1,234.2,676.1z"/>
<path class="st2" d="M601.2,676.1H324.8c-6,0-10.8-4.8-10.8-10.8v-13.4c0-6,4.8-10.8,10.8-10.8h276.4c6,0,10.8,4.8,10.8,10.8v13.4
	C612,671.3,607.2,676.1,601.2,676.1z"/>
</svg>
