<svg version="1.1" id="Layer_1" xmlns="http://www.w3.org/2000/svg" xmlns:xlink="http://www.w3.org/1999/xlink" x="0px" y="0px"
	 viewBox="0 0 507 447" style="enable-background:new 0 0 507 447;" xml:space="preserve">
<style type="text/css">
	.st0{fill:#CDCDCD;}
	.st1{fill:#FFFFFF;}
</style>
<g>
	<path class="st0" d="M244.5,14.8L10.6,419.9c-3.7,6.4,0.9,14.4,8.3,14.4h467.8c7.4,0,12-8,8.3-14.4L261.1,14.8
		C257.4,8.4,248.2,8.4,244.5,14.8z"/>
</g>
<g>
	<path class="st1" d="M270.1,297c-0.5,2.8-1.3,4.7-2.6,5.9c-1.3,1.2-3.5,1.7-6.7,1.7h-18.3c-2.5,0-4.3-0.5-5.2-1.6
		c-0.9-1-1.6-2.8-2.1-5.4l-13.1-163V134c0-1.8,0.5-3.2,1.6-4.1c1-0.9,2.2-1.4,3.6-1.4H278c1.6,0,2.9,0.6,3.8,1.7
		c0.9,1.2,1.3,2.5,1,4.1L270.1,297z M281.1,376.5c0,3-0.7,5.1-2.1,6.4c-1.4,1.3-3.8,1.9-7.3,1.9H231c-2.8,0-4.7-0.6-5.9-1.7
		c-1.2-1.1-1.7-3-1.7-5.5v-42.8c0-4.1,1.7-6.2,5.2-6.2h47.3c3.5,0,5.2,1.8,5.2,5.5V376.5z"/>
</g>
<g>
</g>
<g>
</g>
<g>
</g>
<g>
</g>
<g>
</g>
<g>
</g>
<g>
</g>
<g>
</g>
<g>
</g>
<g>
</g>
<g>
</g>
<g>
</g>
<g>
</g>
<g>
</g>
<g>
</g>
</svg>
