<svg version="1.1" xmlns="http://www.w3.org/2000/svg" viewBox="0 0 32 32">
	<path
		d="M23,18.41v6.36a4.9,4.9,0,0,1-3.13,4.59A5.45,5.45,0,0,1,18,29.7a4.82,4.82,0,0,1-3.31-1.33l-.19-.18L8.8,22.47l-.13-.13c-.38-.37-1.09-1.06-1.09-1.7a1,1,0,0,1,.36-.73,1.2,1.2,0,0,1,.85-.35,2.42,2.42,0,0,1,1.36.54l3,2.18V11.84a.93.93,0,1,1,1.85,0v9a.41.41,0,0,0,.41.41.41.41,0,0,0,.41-.41V16.76a.92.92,0,0,1,.92-.92.93.93,0,0,1,.93.92v4.06a.41.41,0,1,0,.81,0V17.58a.93.93,0,0,1,1.85,0v3.24a.41.41,0,0,0,.41.41.41.41,0,0,0,.41-.41V18.41a.93.93,0,1,1,1.85,0Z"
		class="fill"
	/>
	<path
		d="M21.72,14.67H26a1.1,1.1,0,0,0,1.1-1.1V6.31A1.1,1.1,0,0,0,26,5.21H6a1.09,1.09,0,0,0-1.09,1.1v7.26A1.09,1.09,0,0,0,6,14.67h5.19"
		fill="none"
		class="stroke"
		stroke-linecap="round"
		stroke-miterlimit="10"
	/>
</svg>