<svg xmlns="http://www.w3.org/2000/svg" viewBox="0 0 451.78 414.45"><defs><style>.cls-1{fill:#0c4ba5;opacity:0.11;}</style></defs><title>Asset 1</title><g id="Layer_2" data-name="Layer 2"><g id="Layer_2-2" data-name="Layer 2"><path class="cls-1" d="M142.05,2.14,8,79.54A16,16,0,0,0,0,93.39V248.18A16,16,0,0,0,8,262l134.05,77.4a16,16,0,0,0,16,0L292.1,262a16,16,0,0,0,8-13.85V93.39a16,16,0,0,0-8-13.85l-134-77.4A16,16,0,0,0,142.05,2.14Z"/><path class="cls-1" d="M365.74,241.31l-62.05,35.82a16,16,0,0,0-8,13.85v71.65a16,16,0,0,0,8,13.85l62.05,35.82a16,16,0,0,0,16,0l62-35.82a16,16,0,0,0,8-13.85V291a16,16,0,0,0-8-13.85l-62-35.82A16,16,0,0,0,365.74,241.31Z"/></g></g></svg>