<?xml version="1.0" encoding="utf-8"?>
<!-- Generator: Adobe Illustrator 19.1.0, SVG Export Plug-In . SVG Version: 6.00 Build 0)  -->
<svg version="1.1" id="sup" xmlns="http://www.w3.org/2000/svg" xmlns:xlink="http://www.w3.org/1999/xlink" x="0px" y="0px"
	 viewBox="0 0 20 20" style="enable-background:new 0 0 20 20;" xml:space="preserve">
<style type="text/css">
	.st0{fill:#FFFFFF;}
</style>
<g>
	<path class="st0" d="M10,13H7.3v-0.4c0.2,0,0.3,0,0.4-0.1c0.1,0,0.2-0.1,0.2-0.2c0,0,0-0.1-0.1-0.2S7.8,12.1,7.8,12
		c-0.1-0.2-0.2-0.4-0.4-0.6c-0.2-0.3-0.4-0.6-0.6-0.9c-0.2,0.3-0.4,0.5-0.6,0.7C6,11.5,5.9,11.7,5.7,12c0,0-0.1,0.1-0.1,0.1
		s0,0.1,0,0.1c0,0.1,0.1,0.2,0.2,0.2c0.1,0.1,0.3,0.1,0.5,0.1V13H4.1v-0.4c0.3-0.1,0.5-0.2,0.6-0.3s0.3-0.2,0.4-0.4
		c0.1-0.2,0.3-0.4,0.5-0.6s0.5-0.6,0.8-1.1c-0.2-0.3-0.4-0.6-0.7-1s-0.5-0.8-0.7-1C5,8,4.8,7.8,4.7,7.7C4.6,7.7,4.4,7.6,4.2,7.6V7.2
		h2.5v0.4c-0.1,0-0.2,0-0.4,0S6.1,7.7,6.1,7.7c0,0,0,0.1,0,0.1S6.2,7.9,6.3,8c0.1,0.1,0.2,0.3,0.4,0.6C6.8,8.9,7,9.2,7.2,9.5
		c0.1-0.2,0.3-0.4,0.5-0.7c0.2-0.2,0.3-0.5,0.5-0.7c0,0,0-0.1,0-0.1s0-0.1,0-0.1c0-0.1-0.1-0.1-0.2-0.2S7.8,7.6,7.7,7.6V7.2h2.1v0.4
		C9.5,7.7,9.3,7.8,9.1,7.9S8.8,8.1,8.7,8.2C8.6,8.4,8.4,8.6,8.2,8.8c-0.2,0.2-0.4,0.6-0.7,1c0.4,0.5,0.6,0.9,0.9,1.2
		c0.2,0.3,0.4,0.7,0.7,1c0.1,0.2,0.2,0.3,0.4,0.4s0.3,0.2,0.6,0.2V13z"/>
</g>
<g>
	<path class="st0" d="M16.8,10h-5.5V9.2c0.1-0.1,0.3-0.3,0.4-0.4c0.2-0.2,0.4-0.3,0.7-0.5c0.2-0.1,0.3-0.2,0.6-0.3s0.5-0.3,0.7-0.4
		c0.3-0.2,0.5-0.3,0.7-0.4c0.2-0.1,0.3-0.3,0.5-0.5c0.1-0.1,0.2-0.3,0.2-0.5c0.1-0.2,0.1-0.4,0.1-0.8c0-0.5-0.1-0.8-0.4-1.1
		c-0.3-0.2-0.6-0.3-1-0.3c-0.3,0-0.5,0-0.7,0.1s-0.4,0.2-0.5,0.4c0,0.1,0.1,0.3,0.1,0.4s0.1,0.3,0.1,0.5c0,0.1-0.1,0.3-0.2,0.4
		s-0.3,0.2-0.5,0.2c-0.2,0-0.3-0.1-0.5-0.2s-0.2-0.3-0.2-0.5c0-0.2,0.1-0.4,0.2-0.6s0.3-0.4,0.5-0.6c0.2-0.2,0.5-0.3,0.8-0.4
		s0.7-0.2,1-0.2c0.8,0,1.4,0.2,1.9,0.5s0.7,0.8,0.7,1.4c0,0.3,0,0.5-0.1,0.8c-0.1,0.2-0.2,0.4-0.4,0.6c-0.2,0.2-0.4,0.4-0.7,0.5
		c-0.3,0.1-0.7,0.3-1.3,0.6c-0.3,0.2-0.7,0.3-0.9,0.5c-0.3,0.2-0.5,0.3-0.7,0.5h4.5V10z"/>
</g>
</svg>
