<svg id="Layer_1" data-name="Layer 1" xmlns="http://www.w3.org/2000/svg" viewBox="0 0 13.08 14.57"><defs><style>.cls-1{opacity:0.55;}</style></defs><title>text</title><g class="cls-1"><path d="M18.74,5.2V9.14H18.35a6.22,6.22,0,0,0-.76-2,2.93,2.93,0,0,0-1.15-1A3.68,3.68,0,0,0,15,6H13.93V17.28a4.58,4.58,0,0,0,.12,1.4,1.1,1.1,0,0,0,.48.49,1.94,1.94,0,0,0,1,.21H16v0.4H8.37v-0.4H8.86a2,2,0,0,0,1-.23,1,1,0,0,0,.44-0.52,4.43,4.43,0,0,0,.12-1.35V6H9.38a3.06,3.06,0,0,0-2.14.62A4.12,4.12,0,0,0,6.06,9.14H5.66V5.2H18.74Z" transform="translate(-5.66 -5.2)"/></g></svg>