<svg data-name="Layer 11" xmlns="http://www.w3.org/2000/svg" viewBox="0 0 32 32">
    <path d="M19.77 13.69a4 4 0 0 0-.38-1.6 4.47 4.47 0 0 0-1.23-1.6 4.38 4.38 0 0 0-2.79-1H7.93a4.42 4.42 0 0 0-2.16 8.31 4.27 4.27 0 0 0 2.11.54h4.53a5.65 5.65 0 0 1-.27-1.58H7.93a2.69 2.69 0 0 1-1.58-.55 4.38 4.38 0 0 1-.42-.35 2.75 2.75 0 0 1-.83-2 2.83 2.83 0 0 1 2.83-2.83h7.42a.65.65 0 0 1 .18 0 2.75 2.75 0 0 1 2 1 2.57 2.57 0 0 1 .62 1.55.62.62 0 0 1 0 .24 2.74 2.74 0 0 1-.4 1.44.56.56 0 0 1-.08.13 3 3 0 0 1-.35.42 1.45 1.45 0 0 1-.34.29.93.93 0 0 0 0 .3 1.22 1.22 0 0 0 .79 1.24 4.5 4.5 0 0 0 1.84-2.36 4.73 4.73 0 0 0 .16-1.36 1.22 1.22 0 0 0 0-.23z"/>
    <path d="M25.61 12.09h-4.53a5.87 5.87 0 0 1 .27 1.6h4.26a2.82 2.82 0 1 1 0 5.64h-7.44a.54.54 0 0 1-.16 0 2.67 2.67 0 0 1-2-1 2.57 2.57 0 0 1-.62-1.55.51.51 0 0 1 0-.22 2.66 2.66 0 0 1 .38-1.5 2.51 2.51 0 0 1 .75-.83.93.93 0 0 0 0-.3 1.22 1.22 0 0 0-.75-1.14 4.45 4.45 0 0 0-1.82 2.35 4.84 4.84 0 0 0-.18 1.37 1.06 1.06 0 0 0 0 .22 4 4 0 0 0 .38 1.6 4.47 4.47 0 0 0 1.23 1.6 4.34 4.34 0 0 0 2.78 1h7.44a4.42 4.42 0 1 0 0-8.83zm-7.44 1.6h1.6a4 4 0 0 0-.38-1.6h-1.22a4.35 4.35 0 0 0-.65 0 2.57 2.57 0 0 1 .62 1.55z"/>
</svg>
