<svg version="1.1" id="Layer_1" xmlns="http://www.w3.org/2000/svg" xmlns:xlink="http://www.w3.org/1999/xlink" x="0px" y="0px"
	 viewBox="0 0 93 146" style="enable-background:new 0 0 93 146;" xml:space="preserve">
<style type="text/css">
	.st0{fill:#FFFFFF;}
	.st1{fill:none;stroke:#FFFFFF;stroke-width:9;stroke-miterlimit:10;}
</style>
<g>
	<path class="st0" d="M72.93,145H21.65c-3.21,0-6.18-3.52-6.64-7.86L4.82,39.86C4.37,35.52,7.52,32,11.86,32h69.29
		c4.34,0,7.54,3.52,7.14,7.86l-8.83,97.29C79.06,141.48,76.14,145,72.93,145z"/>
</g>
<path class="st1" d="M56.5,21.5h-19c-4.42,0-8-3.58-8-8v0c0-4.42,3.58-8,8-8h19c4.42,0,8,3.58,8,8v0
	C64.5,17.92,60.92,21.5,56.5,21.5z"/>
<path class="st0" d="M87.02,27H5.98C3.23,27,1,24.77,1,22.02v-3.05C1,16.23,3.23,14,5.98,14h81.05c2.75,0,4.98,2.23,4.98,4.98v3.05
	C92,24.77,89.77,27,87.02,27z"/>
<path class="st0" d="M27.63,117h-1.25c-1.86,0-3.37-1.51-3.37-3.37V57.37c0-1.86,1.51-3.37,3.37-3.37h1.25
	c1.86,0,3.37,1.51,3.37,3.37v56.25C31,115.49,29.49,117,27.63,117z"/>
<path class="st0" d="M47.63,117h-1.25c-1.86,0-3.37-1.51-3.37-3.37V57.37c0-1.86,1.51-3.37,3.37-3.37h1.25
	c1.86,0,3.37,1.51,3.37,3.37v56.25C51,115.49,49.49,117,47.63,117z"/>
<path class="st0" d="M67.63,117h-1.25c-1.86,0-3.37-1.51-3.37-3.37V57.37c0-1.86,1.51-3.37,3.37-3.37h1.25
	c1.86,0,3.37,1.51,3.37,3.37v56.25C71,115.49,69.49,117,67.63,117z"/>
</svg>
