<svg xmlns="http://www.w3.org/2000/svg" viewBox="0 0 325.81 114.14"><path fill="#ffc620" d="M131.61 91.39H0V21.95h149.37z"/><path d="M20.92 59.48V40.07h7.47v19.22c0 5.53 2.77 8.39 7.33 8.39 4.56 0 7.33-2.77 7.33-8.15V40.07h7.47v19.17c0 10.29-5.77 15.34-14.9 15.34-9.12 0-14.7-5.1-14.7-15.1zM58.09 57.15v-.1c0-9.66 7.28-17.57 17.71-17.57 6.41 0 10.24 2.14 13.39 5.24l-4.76 5.48c-2.62-2.38-5.29-3.83-8.69-3.83-5.73 0-9.85 4.76-9.85 10.58v.1c0 5.82 4.03 10.68 9.85 10.68 3.88 0 6.26-1.55 8.93-3.98l4.76 4.8c-3.5 3.74-7.38 6.07-13.93 6.07-9.99.01-17.41-7.71-17.41-17.47zM96.86 40.07h25.87v6.8h-18.39v7.23h16.21v6.79h-16.21v13.15h-7.47V40.07zM324.31 74.43h-22.82c-.83 0-1.51-.68-1.51-1.51V71.1c0-.83.68-1.51 1.51-1.51h22.82c.83 0 1.51.68 1.51 1.51v1.83c-.01.83-.68 1.5-1.51 1.5zM177.27 43.32c2.12 0 4.01.32 5.66.97 1.65.65 3.06 1.54 4.24 2.68a12.45 12.45 0 0 1 2.8 4.16 17.27 17.27 0 0 1 1.33 6.6v3.06a18.89 18.89 0 0 1-1.36 6.57 12.15 12.15 0 0 1-7.01 6.81c-1.65.65-3.54.97-5.66.97s-4.01-.32-5.66-.97a12.73 12.73 0 0 1-4.24-2.68 12.42 12.42 0 0 1-2.8-4.13A17.06 17.06 0 0 1 163.3 62a37.55 37.55 0 0 1 0-5.54c.16-1.92.58-3.7 1.27-5.33a12.45 12.45 0 0 1 2.8-4.16 12.73 12.73 0 0 1 4.24-2.68c1.65-.64 3.54-.97 5.66-.97zm8.6 18.39c.08-.67.12-1.48.12-2.45 0-.96-.04-1.8-.12-2.51a12.44 12.44 0 0 0-.77-3.3 7.55 7.55 0 0 0-4.24-4.42 9.22 9.22 0 0 0-3.6-.65c-1.38 0-2.57.22-3.6.65a7.46 7.46 0 0 0-2.59 1.77 7.92 7.92 0 0 0-1.65 2.65 12.84 12.84 0 0 0-.77 3.3c-.08.71-.12 1.54-.12 2.51 0 .96.04 1.78.12 2.45.12 1.18.37 2.28.77 3.3a7.55 7.55 0 0 0 4.24 4.42c1.02.43 2.22.65 3.6.65s2.57-.22 3.6-.65a7.46 7.46 0 0 0 2.59-1.77 7.92 7.92 0 0 0 1.65-2.65c.4-1.02.66-2.12.77-3.3zM213.22 75.15c-2.44 0-4.38-.42-5.84-1.27a11.09 11.09 0 0 1-3.3-2.74v13.03c0 .43-.16.8-.47 1.12-.31.31-.69.47-1.12.47h-2.18c-.43 0-.81-.16-1.12-.47a1.52 1.52 0 0 1-.47-1.12V45.5c0-.43.16-.81.47-1.12.31-.31.69-.47 1.12-.47h2.18c.43 0 .81.16 1.12.47.31.31.47.69.47 1.12v1.83a10.45 10.45 0 0 1 3.36-2.8c1.45-.81 3.38-1.21 5.78-1.21 1.85 0 3.57.32 5.16.97 1.59.65 2.98 1.58 4.16 2.8a13.8 13.8 0 0 1 2.83 4.42 17.87 17.87 0 0 1 1.24 5.83 28.5 28.5 0 0 1 0 3.84 17.93 17.93 0 0 1-1.24 5.84 13.45 13.45 0 0 1-2.83 4.39 12.19 12.19 0 0 1-4.16 2.77 13.5 13.5 0 0 1-5.16.97zm-9.13-18.45c-.04.59-.06 1.37-.06 2.33s.02 1.74.06 2.33c.12 2.79.95 4.94 2.51 6.45a8.3 8.3 0 0 0 6.04 2.27c2.59 0 4.64-.83 6.13-2.48 1.49-1.65 2.32-3.89 2.48-6.72.04-1.1.04-2.2 0-3.3-.16-2.83-.98-5.07-2.48-6.72-1.49-1.65-3.54-2.48-6.13-2.48-2.44 0-4.44.75-6.01 2.24-1.58 1.5-2.43 3.53-2.54 6.08zM232.55 56.29c.16-1.81.59-3.5 1.3-5.07a14.46 14.46 0 0 1 2.77-4.13 12.22 12.22 0 0 1 4.1-2.77c1.59-.67 3.37-1 5.33-1 2.12 0 4.02.34 5.69 1.03s3.09 1.68 4.27 2.98a13.28 13.28 0 0 1 2.71 4.72c.63 1.85.94 3.91.94 6.19v1.59c0 .43-.16.81-.47 1.12a1.5 1.5 0 0 1-1.12.47H237.8v.35c.08 2.67.89 4.73 2.45 6.16a8.2 8.2 0 0 0 5.81 2.15c2.16 0 3.78-.3 4.86-.91a10.38 10.38 0 0 0 2.62-2.03c.31-.31.59-.53.83-.65s.59-.18 1.06-.18h1.77c.43 0 .83.16 1.18.47.35.31.49.69.41 1.12a6.32 6.32 0 0 1-1 2.33 8.8 8.8 0 0 1-2.39 2.36 14.21 14.21 0 0 1-3.89 1.83c-1.55.49-3.37.74-5.45.74-1.97 0-3.73-.34-5.3-1.03a12.8 12.8 0 0 1-4.1-2.83 14.16 14.16 0 0 1-2.8-4.24 16.74 16.74 0 0 1-1.3-5.33c-.2-1.83-.2-3.63-.01-5.44zm5.25.18h16.56v-.18c0-2.4-.76-4.31-2.27-5.75-1.51-1.43-3.53-2.15-6.04-2.15-1.14 0-2.2.19-3.18.56a7.8 7.8 0 0 0-2.59 1.59 7.32 7.32 0 0 0-1.77 2.51 8.73 8.73 0 0 0-.71 3.24v.18zM294.03 72.97c0 .43-.16.81-.47 1.12-.31.31-.69.47-1.12.47h-2.18c-.43 0-.81-.16-1.12-.47a1.54 1.54 0 0 1-.47-1.12V57.41c0-3.03-.73-5.28-2.18-6.78-1.45-1.49-3.48-2.24-6.07-2.24-2.48 0-4.47.75-5.98 2.24-1.51 1.49-2.27 3.75-2.27 6.78v15.56c0 .43-.16.81-.47 1.12-.32.31-.69.47-1.12.47h-2.18c-.43 0-.81-.16-1.12-.47a1.5 1.5 0 0 1-.47-1.12V45.5c0-.43.16-.81.47-1.12.31-.31.69-.47 1.12-.47h2.18c.43 0 .8.16 1.12.47.31.31.47.69.47 1.12v1.83a11 11 0 0 1 3.33-2.74c1.47-.84 3.41-1.27 5.8-1.27 1.85 0 3.56.31 5.13.91 1.57.61 2.92 1.47 4.04 2.59a11.68 11.68 0 0 1 2.62 4.16c.63 1.65.94 3.5.94 5.54v16.45zM163.14 0L134.6 114.14h6.66L169.8 0z"/></svg>