<svg xmlns="http://www.w3.org/2000/svg" viewBox="0 0 32 32">
    <path d="M21.5 16c.4.3.7.6.9 1s.4.8.4 1.4c0 .6-.1 1.2-.4 1.6s-.6.8-1.1 1c-.5.3-1.1.5-1.8.6s-1.5.2-2.4.2h-6.5v-.7c.2 0 .4 0 .7-.1s.5-.1.6-.1c.2-.1.4-.2.4-.3s.1-.3.1-.6v-8.8c0-.2 0-.4-.1-.5s-.3-.3-.6-.4c-.2-.1-.4-.1-.6-.2s-.4-.1-.6-.1v-.7h6.8c1.7 0 2.9.2 3.7.7s1.1 1.2 1.1 2.1c0 .4-.1.8-.3 1.1s-.4.6-.7.8a4.95 4.95 0 0 1-2.3 1v.2c.5 0 .9.1 1.4.3s.9.3 1.3.5zm-2.8-3.7c0-.7-.2-1.2-.6-1.6s-1-.6-1.8-.6h-.9v4.6h.5c.9 0 1.6-.2 2.1-.7s.7-1 .7-1.7zm.6 6c0-.9-.3-1.5-.8-2s-1.3-.7-2.2-.7h-.8v4.6c.1.2.2.4.5.6.3.1.6.2 1 .2.7 0 1.3-.2 1.7-.7.4-.5.6-1.2.6-2z"/>
</svg>
