<svg id="Layer_1" data-name="Layer 1" xmlns="http://www.w3.org/2000/svg" viewBox="0 0 13.27 13.28"><defs><style>.cls-1{fill:none;stroke:#fff;stroke-linejoin:round;opacity:0.5;}.cls-2{fill:#fff;}</style></defs><path class="cls-1" d="M12,1.25a2.56,2.56,0,0,0-3.62,0L6.79,2.86l-.23-.23a.58.58,0,0,0-.81,0L4.54,3.84a.58.58,0,0,0,0,.81l.64.65-2.95,3a1.2,1.2,0,0,0-.35.8h0v.5l-1,1a1.31,1.31,0,0,0-.08,1.81,1.25,1.25,0,0,0,1,.43,1.28,1.28,0,0,0,.92-.38l1-1h.44A1.18,1.18,0,0,0,5,11L8,8.09l.65.64a.58.58,0,0,0,.81,0l1.21-1.21a.58.58,0,0,0,0-.81l-.23-.23L12,4.87A2.56,2.56,0,0,0,12,1.25Z"/><path class="cls-2" d="M9.66,1.53H9.31l-6.9,6.9a1,1,0,0,0-.27.63v.61L1.08,10.72A1.07,1.07,0,0,0,1,12.19a1.05,1.05,0,0,0,.78.35,1,1,0,0,0,.74-.31l1.09-1.09H4.2a.91.91,0,0,0,.65-.27L11.75,4V3.62Z"/><path d="M9.84,1.35H9.13L2.24,8.25a1.2,1.2,0,0,0-.35.8h0v.52l-1,1a1.31,1.31,0,0,0-.08,1.81,1.28,1.28,0,0,0,1.87.05l1-1h.44A1.18,1.18,0,0,0,5,11l6.9-6.89V3.44ZM4.68,10.69a.71.71,0,0,1-.48.2H3.52L2.35,12.05A.78.78,0,0,1,1.2,12a.82.82,0,0,1,.06-1.12L2.39,9.77v-.7a.71.71,0,0,1,.2-.47l6.9-6.89,2.08,2.08Z"/><path d="M10.65,6.7l-.23-.22L12,4.87A2.56,2.56,0,0,0,8.41,1.25L6.8,2.86l-.23-.23a.56.56,0,0,0-.81,0L4.55,3.84a.56.56,0,0,0,0,.81L8.62,8.73a.58.58,0,0,0,.81,0l1.22-1.21A.59.59,0,0,0,10.65,6.7Z"/></svg>
