<svg data-name="Layer 12" xmlns="http://www.w3.org/2000/svg" viewBox="0 0 32 32">
    <path fill-opacity=".7" d="M18.72 21.77h-5.25V21l.89-.12q.37-.06.37-.3a.82.82 0 0 0-.12-.32l-.23-.41-.8-1.21-1.24-1.82q-.6.75-1.12 1.47l-1.06 1.51a2.32 2.32 0 0 0-.17.29.67.67 0 0 0-.09.28q0 .26.33.42a2.84 2.84 0 0 0 1 .23v.74H6.99v-.72a4.49 4.49 0 0 0 1.27-.56 4.4 4.4 0 0 0 .89-.82l1-1.28q.65-.82 1.67-2.21l-1.44-2.06-1.39-2.03a2.78 2.78 0 0 0-.71-.69 1.9 1.9 0 0 0-1.1-.27v-.77h5v.77a5.68 5.68 0 0 0-.73 0c-.24 0-.36.1-.36.21a.49.49 0 0 0 .07.23 3.12 3.12 0 0 0 .17.28l.79 1.22 1.16 1.74.95-1.3q.54-.74 1-1.42a1.47 1.47 0 0 0 .09-.2.67.67 0 0 0 0-.24q0-.24-.4-.39a4.23 4.23 0 0 0-.76-.2v-.74h4.22v.72a4.93 4.93 0 0 0-1.39.56 3.65 3.65 0 0 0-.85.74l-.91 1.17-1.48 2 1.72 2.44 1.33 2a3 3 0 0 0 .75.81 2.15 2.15 0 0 0 1.13.34z"/>
    <path d="M27.36 11.39h-7.1v-1a4.44 4.44 0 0 1 .57-.53q.36-.29.86-.63.3-.2.73-.45l1-.53a7.32 7.32 0 0 0 .92-.56 2.94 2.94 0 0 0 .59-.6 1.89 1.89 0 0 0 .28-.59 3.66 3.66 0 0 0 .11-1 1.75 1.75 0 0 0-.51-1.39 1.91 1.91 0 0 0-1.3-.44 2.29 2.29 0 0 0-.93.19 1.45 1.45 0 0 0-.66.53l.13.58a2.8 2.8 0 0 1 .08.65.68.68 0 0 1-.24.51 1 1 0 0 1-.71.22.7.7 0 0 1-.58-.26 1.11 1.11 0 0 1-.2-.7 1.69 1.69 0 0 1 .23-.82 2.64 2.64 0 0 1 .65-.76 3.33 3.33 0 0 1 1-.55 4 4 0 0 1 1.33-.21 4 4 0 0 1 2.47.69 2.21 2.21 0 0 1 .91 1.81 3 3 0 0 1-.16 1 2.06 2.06 0 0 1-.53.8 4 4 0 0 1-.94.66q-.54.28-1.64.77-.66.3-1.23.62a6.39 6.39 0 0 0-.93.62h5.83z"/>
</svg>
