<svg xmlns="http://www.w3.org/2000/svg" width="253" height="64.58">
    <path d="M18.4 53.63h-.03C7.02 53.4 0 43.15 0 33.79 0 23 8.43 13.9 18.4 13.9c11 0 18.4 10.29 18.4 19.9 0 10.72-8.24 19.62-18.37 19.84h-.03zm0-35.37c-8.4 0-14.03 8.03-14.03 15.53.3 7.58 5.62 15.47 14.03 15.47 8.4 0 14.03-8 14.03-15.47 0-8.42-6.43-15.53-14.03-15.53zm39.75 35.37c-6.02 0-13.5-3.57-16.15-10.4a7.73 7.73 0 0 1-.6-3.28V1.5A1.5 1.5 0 0 1 42.9 0h1.36c.83 0 1.5.67 1.5 1.5V20c3.83-4.06 8.19-6.11 13-6.11 11.12 0 18 10.33 18 19.9-.32 10.96-8.66 19.84-18.61 19.84zM45.76 27.45v12.43c0 4.66 7.2 9.38 12.39 9.38 8.52 0 14.24-8 14.24-15.47 0-7.47-5.21-15.53-13.62-15.53-7.54 0-11.7 6.67-13 9.19zm53.3 26.18h-.03C87.7 53.4 80.66 43.15 80.66 33.79c0-10.79 8.43-19.9 18.4-19.9 11 0 18.4 10.3 18.4 19.9 0 10.72-8.24 19.62-18.37 19.84h-.03zm0-35.37c-8.39 0-14.03 8.03-14.03 15.53.3 7.58 5.63 15.47 14.03 15.47 8.4 0 14.03-8 14.03-15.47 0-8.42-6.42-15.53-14.03-15.53zm54.19 35.37h-.03c-11.34-.23-18.37-10.48-18.37-19.84 0-10.79 8.43-19.9 18.4-19.9 11 0 18.4 10.3 18.4 19.9 0 10.72-8.24 19.62-18.37 19.84h-.03zm0-35.37c-8.4 0-14.03 8.03-14.03 15.53.3 7.58 5.63 15.47 14.03 15.47 8.4 0 14.03-8 14.03-15.47 0-8.42-6.42-15.53-14.03-15.53zm81.35 35.37h-.03c-11.35-.23-18.37-10.48-18.37-19.84 0-10.79 8.43-19.9 18.4-19.9 11 0 18.4 10.3 18.4 19.9 0 10.72-8.24 19.62-18.37 19.84h-.03zm0-35.37c-8.4 0-14.03 8.03-14.03 15.53.3 7.58 5.63 15.47 14.03 15.47 8.4 0 14.03-8 14.03-15.47 0-8.42-6.42-15.53-14.03-15.53zm-40.98 35.37c-6.02 0-13.5-3.57-16.16-10.4l-.1-.23c-.25-.61-.6-1.44-.6-3.05 0-15.9.1-38.23.1-38.46 0-.82.68-1.5 1.5-1.5h1.37c.83 0 1.5.68 1.5 1.5V20c3.83-4.05 8.19-6.1 13-6.1 11.12 0 18 10.33 18 19.9-.31 10.96-8.66 19.84-18.61 19.84zm-12.39-26.18v12.43c0 4.66 7.2 9.38 12.39 9.38 8.52 0 14.23-8 14.23-15.47 0-7.47-5.2-15.53-13.61-15.53-7.53 0-11.7 6.67-13 9.19z"/>
    <path d="M118.02 64.58h-.04c-2.44-.07-5.54-.44-7.87-2.77a1.5 1.5 0 0 1 .16-2.26l1.1-.82a1.5 1.5 0 0 1 1.89.07c1.08.95 2.61 1.41 4.69 1.41 2.91 0 6.3-2.75 6.3-6.3V16.07c0-.83.67-1.5 1.5-1.5h1.37c.82 0 1.5.67 1.5 1.5v37.84c0 6.29-5.59 10.67-10.6 10.67zm9.1-56.31h-1.37a1.5 1.5 0 0 1-1.5-1.5V2.39c0-.83.67-1.5 1.5-1.5h1.37c.82 0 1.5.67 1.5 1.5v4.38c0 .83-.68 1.5-1.5 1.5z"/>
</svg>
