<?xml version="1.0" encoding="utf-8"?>
<!-- Generator: Adobe Illustrator 19.1.0, SVG Export Plug-In . SVG Version: 6.00 Build 0)  -->
<svg version="1.1" id="Layer_10" xmlns="http://www.w3.org/2000/svg" xmlns:xlink="http://www.w3.org/1999/xlink" x="0px" y="0px"
	 viewBox="0 0 20 20" style="enable-background:new 0 0 20 20;" xml:space="preserve">
<style type="text/css">
	.st0{fill:#FFFFFF;}
</style>
<g>
	<path class="st0" d="M14.9,10.6c0.4,0.3,0.7,0.6,0.9,1s0.4,0.8,0.4,1.4c0,0.6-0.1,1.2-0.4,1.6s-0.6,0.8-1.1,1
		c-0.5,0.3-1.1,0.5-1.8,0.6s-1.5,0.2-2.4,0.2H3.9v-0.7c0.2,0,0.4,0,0.7-0.1s0.5-0.1,0.6-0.1c0.2-0.1,0.4-0.2,0.4-0.3
		s0.1-0.3,0.1-0.6V5.7c0-0.2,0-0.4-0.1-0.5S5.4,4.9,5.1,4.8C4.9,4.7,4.7,4.7,4.5,4.6S4,4.5,3.9,4.5V3.8h6.8c1.7,0,2.9,0.2,3.7,0.7
		s1.1,1.2,1.1,2.1c0,0.4-0.1,0.8-0.3,1.1s-0.4,0.6-0.7,0.8c-0.3,0.2-0.6,0.4-1,0.6s-0.8,0.3-1.3,0.4v0.2c0.5,0,0.9,0.1,1.4,0.3
		S14.5,10.3,14.9,10.6z M12,6.8c0-0.7-0.2-1.2-0.6-1.6s-1-0.6-1.8-0.6c-0.1,0-0.3,0-0.4,0s-0.3,0-0.5,0v4.6h0.5
		c0.9,0,1.6-0.2,2.1-0.7S12,7.6,12,6.8z M12.7,12.8c0-0.9-0.3-1.5-0.8-2c-0.5-0.5-1.3-0.7-2.2-0.7c-0.1,0-0.3,0-0.4,0s-0.3,0-0.4,0
		v4.6c0.1,0.2,0.2,0.4,0.5,0.6c0.3,0.1,0.6,0.2,1,0.2c0.7,0,1.3-0.2,1.7-0.7C12.4,14.3,12.7,13.7,12.7,12.8z"/>
</g>
</svg>
