<?xml version="1.0" encoding="utf-8"?>
<!-- Generator: Adobe Illustrator 19.1.0, SVG Export Plug-In . SVG Version: 6.00 Build 0)  -->
<svg version="1.1" id="i" xmlns="http://www.w3.org/2000/svg" xmlns:xlink="http://www.w3.org/1999/xlink" x="0px" y="0px"
	 viewBox="0 0 20 20" style="enable-background:new 0 0 20 20;" xml:space="preserve">
<style type="text/css">
	.st0{fill:#FFFFFF;}
</style>
<g>
	<path class="st0" d="M14.3,3.8l-0.1,0.6c-0.2,0-0.4,0-0.7,0.1s-0.5,0.1-0.7,0.1c-0.2,0.1-0.4,0.2-0.5,0.4S12,5.2,12,5.4l-2.1,9.1
		c0,0,0,0.1,0,0.1s0,0.1,0,0.1c0,0.1,0,0.2,0.1,0.3c0.1,0.1,0.2,0.2,0.3,0.2c0.1,0,0.3,0.1,0.6,0.1s0.5,0.1,0.7,0.1l-0.1,0.6H5.7
		l0.1-0.6c0.2,0,0.4,0,0.7-0.1s0.5-0.1,0.7-0.1c0.2-0.1,0.4-0.2,0.5-0.3s0.2-0.3,0.2-0.5l2.1-9.1c0-0.1,0-0.1,0-0.2s0-0.1,0-0.2
		c0-0.1,0-0.2-0.1-0.3S9.9,4.7,9.7,4.7S9.4,4.5,9.1,4.5S8.6,4.4,8.5,4.3l0.1-0.6H14.3z"/>
</g>
</svg>
