<svg id="Layer_1" data-name="Layer 1"
	xmlns="http://www.w3.org/2000/svg" viewBox="0 0 18.39 18.39">
	<g transform="translate(0, -1)">
		<path d="M3.79,16.49a.25.25,0,0,1,0-.21L8.2,4.19A.39.39,0,0,1,8.32,4a.4.4,0,0,1,.22,0H9.86c.22,0,.35.09.39.26l4.36,12.07v.09c0,.13-.06.2-.18.2H13.23A.26.26,0,0,1,13,16.4l-1.18-3.3a.44.44,0,0,0-.06-.1.24.24,0,0,0-.14,0H6.63a.19.19,0,0,0-.2.13L5.22,16.42a.23.23,0,0,1-.25.15H4A.17.17,0,0,1,3.79,16.49Zm7.35-4.82c.12,0,.17-.07.13-.22l-2-5.59c0-.1-.07-.16-.11-.16S9,5.76,9,5.86L6.92,11.49l0,.1c0,.05,0,.08.13.08Z" fill="#0d4fa7"/>
	</g>
</svg>