<svg id="Layer_1" data-name="Layer 1"
	xmlns="http://www.w3.org/2000/svg" viewBox="0 0 18.39 18.39">
	<g transform="translate(0, -1)">
		<path d="M5.16,16.18a.15.15,0,0,1,0-.16L8.44,7.21a.33.33,0,0,1,.09-.14A.32.32,0,0,1,8.7,7h1c.16,0,.26.06.29.19L13.22,16v.06c0,.1-.05.15-.14.15h-.9a.19.19,0,0,1-.2-.12l-.87-2.41-.06-.07s-.05,0-.1,0H7.28a.17.17,0,0,0-.16.1l-.9,2.42c0,.08-.08.11-.19.11H5.27A.14.14,0,0,1,5.16,16.18Zm5.47-3.52c.1,0,.13-.05.11-.16L9.21,8.42c0-.07-.05-.11-.08-.11s-.07,0-.09.11L7.49,12.53l0,.07s0,.06.1.06Z" fill="#0d4fa7"/>
	</g>
</svg>