<svg id="Layer_11" data-name="Layer 11" xmlns="http://www.w3.org/2000/svg" viewBox="0 0 20 20"><defs><style>.cls-1{fill:#231f20;}.cls-2{fill:#fff;}</style></defs><title>bookmark-icon2</title><rect class="cls-1" width="20" height="20"/><polygon class="cls-2" points="3.62 16.41 0.29 16.41 0.29 15.43 4.61 15.43 3.62 16.41"/><path class="cls-2" d="M14.18,2.47h2a0.84,0.84,0,0,1,.84.84v9.51a0,0,0,0,1,0,0h-3.7a0,0,0,0,1,0,0V3.31A0.84,0.84,0,0,1,14.18,2.47Z" transform="translate(9.86 -8.5) rotate(45)"/><polygon class="cls-2" points="8.19 15.92 7.69 16.41 5.2 16.41 6.94 14.68 8.19 15.92"/><polygon class="cls-2" points="8.85 15.24 7.6 13.99 9.54 10.69 12.15 13.31 8.85 15.24"/></svg>