<svg id="Layer_11" data-name="Layer 11" xmlns="http://www.w3.org/2000/svg" viewBox="0 0 20 20"><defs><style>.cls-1{fill:#231f20;}.cls-2{fill:#fff;}</style></defs><title>question-icon</title><path class="cls-2" d="M8.13,12.38V11.65A3.21,3.21,0,0,1,8.53,10,5.26,5.26,0,0,1,10,8.54a6.13,6.13,0,0,0,1.36-1.19,1.73,1.73,0,0,0,.33-1,1.11,1.11,0,0,0-.47-1A2.24,2.24,0,0,0,9.9,5,7.54,7.54,0,0,0,6.55,6L5.49,3.83a9.33,9.33,0,0,1,4.63-1.22,4.93,4.93,0,0,1,3.21,1,3.17,3.17,0,0,1,1.19,2.58A3.44,3.44,0,0,1,14,8a7,7,0,0,1-1.86,1.76A5.75,5.75,0,0,0,11,10.84a1.64,1.64,0,0,0-.25.95v0.59H8.13ZM7.82,15.73a1.64,1.64,0,0,1,.44-1.24,1.79,1.79,0,0,1,1.28-.42,1.74,1.74,0,0,1,1.26.43,1.64,1.64,0,0,1,.45,1.23,1.64,1.64,0,0,1-.45,1.22,1.7,1.7,0,0,1-1.25.45A1.76,1.76,0,0,1,8.27,17,1.63,1.63,0,0,1,7.82,15.73Z"/></svg>