<svg version="1.1" id="Layer_1" xmlns="http://www.w3.org/2000/svg" x="0" y="0" viewBox="0 0 32 32">
	<path d="M2.76 27.46c-.02-.02-.03-.05-.03-.09v-4.44l.02-.08a.12.12 0 01.08-.03H3.9a.2.2 0 01.09.02c.02.01.03.04.04.07l1.11 2.97c.01.03.03.05.04.05.02 0 .03-.02.04-.06l1.08-2.94c.02-.08.06-.12.13-.12h1.11c.06 0 .09.03.09.1v4.44c0 .05-.01.08-.03.1-.02.02-.06.03-.11.03h-.68c-.04 0-.07-.01-.09-.03-.02-.02-.03-.05-.03-.09v-3.29c0-.03-.01-.04-.02-.04l-.03.04-1.2 3.31c-.02.06-.06.09-.13.09h-.44c-.07 0-.11-.03-.14-.09l-1.19-3.27c0-.03-.01-.04-.03-.04-.01 0-.02.02-.02.05v3.26l-.02.08c-.01.02-.04.02-.08.02h-.54c-.04.01-.07 0-.09-.02zM8.11 27.4l.01-.07 1.59-4.4a.35.35 0 01.06-.09c.02-.02.05-.03.09-.03h.79c.09 0 .15.04.18.13l1.58 4.4.01.06-.02.07c-.01.02-.04.03-.06.03h-.76c-.06 0-.1-.03-.11-.08l-.37-1.02-.03-.05a.08.08 0 00-.05-.02H9.37c-.04 0-.06.02-.08.06l-.38 1.03c-.01.05-.05.08-.11.08h-.61c-.05-.01-.08-.04-.08-.1zm2.68-1.79c.04 0 .06-.02.06-.05l-.01-.05-.61-1.68c-.01-.03-.03-.04-.04-.04s-.03.02-.04.05l-.61 1.68-.01.06c0 .03.02.04.06.04h1.2zM11.92 22.92c0-.07.04-.1.11-.1h3.55c.07 0 .11.03.11.1v.49c0 .06-.03.09-.1.09h-1.21l-.05.01a.08.08 0 00-.02.05v3.82c0 .07-.03.11-.09.11h-.75c-.06 0-.09-.03-.09-.1v-3.82c0-.03 0-.05-.02-.06l-.05-.02h-1.27l-.08-.02c-.02-.01-.03-.04-.03-.07v-.48zM16.26 22.82h3.06c.05 0 .08.03.08.09v.48c0 .08-.04.12-.11.12H17.2c-.07 0-.11.03-.11.09v1.1c0 .06.03.09.09.09h1.44c.06 0 .09.03.09.09v.51c0 .05-.03.08-.09.08h-1.45c-.05 0-.08.02-.08.08v1.17l.02.06.05.02h2.21l.08.02c.02.01.02.04.02.07v.51c0 .03-.01.05-.03.07s-.04.03-.08.03h-3.09c-.04 0-.07-.01-.09-.03-.02-.02-.03-.05-.03-.09v-4.45c.01-.08.04-.11.11-.11zM23.64 27.4l-.02.07a.1.1 0 01-.07.03h-.77a.19.19 0 01-.08-.02c-.02-.01-.03-.04-.05-.08l-.73-1.84a.09.09 0 00-.06-.06.3.3 0 00-.11-.02H21c-.05 0-.08.02-.08.07v1.82c0 .05-.01.08-.03.1-.02.02-.06.03-.11.03h-.67c-.05 0-.08-.01-.09-.03s-.03-.05-.03-.08v-4.45c0-.07.03-.11.09-.11h1.9c.54 0 .96.11 1.26.33.3.22.45.53.45.93 0 .32-.08.58-.25.79-.17.21-.38.36-.63.45-.03.01-.04.04-.03.08l.85 1.95c.01-.01.01.01.01.04zm-.91-3.26c0-.23-.07-.4-.21-.52a.89.89 0 00-.59-.18h-.89l-.09.02c-.02.01-.03.04-.03.07v1.19l.02.07.06.02h.85c.58.02.88-.21.88-.67zM25.08 22.82c.06 0 .09.03.09.1v4.44c0 .05-.01.09-.03.11-.02.02-.06.03-.12.03h-.66c-.05 0-.08-.01-.1-.03s-.03-.05-.03-.09v-4.45c0-.07.03-.11.09-.11h.76zM25.65 27.4l.01-.07 1.59-4.4a.35.35 0 01.06-.09c.02-.02.05-.03.09-.03h.79c.09 0 .15.04.18.13l1.58 4.4.01.06-.02.07c-.01.02-.04.03-.06.03h-.76c-.06 0-.1-.03-.11-.08l-.37-1.02-.03-.05a.08.08 0 00-.05-.02h-1.65c-.04 0-.06.02-.08.06l-.38 1.03c-.01.05-.05.08-.11.08h-.61c-.05-.01-.08-.04-.08-.1zm2.69-1.79c.04 0 .06-.02.06-.05l-.01-.05-.61-1.68c-.01-.03-.03-.04-.04-.04s-.03.02-.04.05l-.61 1.68-.01.06c0 .03.02.04.06.04h1.2z"/>
	<g>
		<path d="M25.67 9.69c-1.34 0-2.54.6-3.34 1.55a4.69 4.69 0 010 5.68 4.4 4.4 0 103.34-7.23zm0 6.24a1.85 1.85 0 110-3.7 1.85 1.85 0 010 3.7z" fill="#a0a09f"/>
		<path fill="#807f7f" d="M10.77 8.75a1.85 1.85 0 113.32.04l1.83 1.83a4.4 4.4 0 00-3.49-7.05 4.38 4.38 0 00-3.5 7.02l1.84-1.84z"/>
		<path fill="#807f7f" d="M13.28 9.62c-.25.13-.53.2-.83.2-.26 0-.51-.06-.74-.15l-1.85 1.85a4.38 4.38 0 005.25-.06l-1.83-1.84z"/>
		<path d="M18.56 9.69c-.69 0-1.35.16-1.93.45-.13.25-.29.49-.46.72l1.56 1.56a1.85 1.85 0 11-.82.82l-1.56-1.56c-.22.17-.46.33-.72.46a4.4 4.4 0 108.33 1.93 4.39 4.39 0 00-4.4-4.38z" fill="#676767"/>
		<path d="M9.63 11.74l-1.6 1.6a1.85 1.85 0 11-.91-.93l1.58-1.58a4.34 4.34 0 01-.43-.68 4.4 4.4 0 102 2 5.35 5.35 0 01-.64-.41z" fill="#3a3a3a"/>
	</g>
</svg>