<svg version="1.1" id="Layer_1" xmlns="http://www.w3.org/2000/svg" x="0" y="0" viewBox="0 0 329.2 57.2" xml:space="preserve"><style>.st0{fill:#5ca1cb}.st4{fill:#4d4d4d}</style><path class="st0" d="M32.7 19.6c-.4-.8-.7-1.8-.7-2.8a6.6 6.6 0 1112.6 3l6.5 6.5a15.7 15.7 0 10-25-.1l6.6-6.6z"/><path class="st0" d="M41.6 22.7a6.6 6.6 0 01-5.6.2l-6.6 6.6a15.6 15.6 0 0018.8-.2l-6.6-6.6z"/><path d="M60.5 23c-2.5 0-4.8.6-7 1.6-.4 1-1 1.8-1.6 2.6l5.6 5.5a6.6 6.6 0 11-3 3L49 30l-2.6 1.7a15.7 15.7 0 1014-8.8z" fill="#73bf54"/><path d="M28.6 30.3L22.9 36a6.6 6.6 0 11-3.3-3.3l5.7-5.7c-.6-.7-1.1-1.5-1.6-2.4a15.6 15.6 0 10-6.9 29.7 15.7 15.7 0 0014-22.5 18 18 0 01-2.2-1.5z" fill="#9d539f"/><path d="M96.8 27.5a15.6 15.6 0 00-22.9 1 16.7 16.7 0 010 20.3 15.6 15.6 0 0023 1V27.5zm-11 17.8a6.6 6.6 0 110-13.3 6.6 6.6 0 010 13.3z" fill="#ef804b"/><g><path class="st4" d="M247.8 45.6c-1.8 4-6.3 7-11.1 7-8 0-13.3-8.1-13.9-15.8v-1.3c.4-7.7 5.2-15.8 13.3-15.8 3.8 0 7.2 1.6 9.8 4.5l-20.5 8.2 1.5 4.2 25.6-10.2-.8-1.5c-3.4-6.2-9-9.7-15.6-9.7-11 0-17.3 10.8-17.6 21 0 10 7.3 20.8 18.2 20.8 5.7 0 12.7-3.4 15.1-10l.6-1.5-4.1-1.1-.5 1.2zM329.2 51.8H328V31c0-9.7-6-15.9-15.2-15.9-4.2 0-8.8 1.7-13.9 5.2l-1.2.9 2.6 3.5 1.2-.8c4-2.8 8-4.4 11.3-4.4 6.5 0 10.8 4.6 10.8 11.5v13.3c0 .6-.3 1.3-.9 2.2-2.8 4.4-9 6-13.5 6S300 49.2 300 44c0-7.5 11.2-7.7 12.5-7.7 2.4 0 4.5 0 6.8.5l1.5.3.8-4.3-1.5-.3c-2.5-.5-5-.7-7.6-.7-8.4 0-17 3.8-17 12.2 0 7.2 6 13 13.7 13 5.6 0 10.6-1.8 14.4-5 0 2.4 1.7 4.1 4 4.2h1.6v-3l-.1-1.4zM284.6 23.9h4.4v33.3h-4.4zM287 9.7a4.3 4.3 0 100 8.6 4.3 4.3 0 000-8.6zM276 15.8c-5.3 0-9.7 2-13 6.1v-6.1h-4.5v40.4h4.4v-25c2-6.6 6.8-10.7 13.1-11h1.5v-4.4H276zM215.7 50l-1.2.5-.2.1c-1.7 1-3.5 1.5-5.2 1.5-1.5 0-3.4-.7-3.6-2.9v-29h9v-4.4h-9v-13h-4.4v13h-5.4v4.4h5.4v29.1c0 4.1 3.5 7.3 8 7.3 4.3 0 7.6-2.2 8-2.5l.8-1-2.3-3.2zM193.4 51.8h-1V31c0-9.7-6-15.9-15.3-15.9-4.2 0-8.8 1.7-13.8 5.2l-1.3.8 2.6 3.6 1.2-.8c4-2.8 8-4.4 11.3-4.4 6.5 0 10.8 4.5 10.8 11.5v13.3c0 .6-.3 1.3-.9 2.2-2.8 4.3-9 6-13.5 6s-9.2-3.3-9.2-8.6c0-7.5 11.2-7.8 12.5-7.8 2.4 0 4.5.1 6.8.6l1.5.3.8-4.3-1.5-.3c-2.5-.5-5-.7-7.6-.7-8.4 0-17 3.7-17 12.2 0 7.2 6 13 13.7 13 5.6 0 10.6-1.8 14.4-5 0 2.4 1.7 4.1 4 4.2h1.6v-4.4zM152 2v-.8l-.5.8h-1.6L127 40 104.4 2h-1.6l-.5-.8V2H101v54.2h4.4V12.1l20.4 34h2.8l20.4-34v44.1h4.5V2z"/></g></svg>