<?xml version="1.0" encoding="utf-8"?>
<!DOCTYPE svg PUBLIC "-//W3C//DTD SVG 1.0//EN" "http://www.w3.org/TR/2001/REC-SVG-20010904/DTD/svg10.dtd">
<svg version="1.0" xmlns="http://www.w3.org/2000/svg" xmlns:xlink="http://www.w3.org/1999/xlink" x="0px" y="0px"
	 width="755.646px" height="135.534px" viewBox="0 0 755.646 135.534"
	 xml:space="preserve">
<g>
	<g>
		<path d="M581.354,113.184c-4.959,11.784-17.761,18.885-29.917,18.885c-20.317,0-35.36-19.403-36.798-41.234V87.37
			c0.959-19.753,13.437-41.41,35.358-41.41c12.482,0,22.618,6.234,29.181,16.088l-50.279,20.248l1.212,3.205l54.132-21.694
			c-6.875-12.602-18.893-21.312-34.245-21.312c-23.197,0-37.921,22.524-38.559,46.607c0,23.04,16.796,46.432,39.998,46.432
			c12.482,0,27.839-7.449,32.96-21.483L581.354,113.184z"/>
		<path d="M752.873,126.871V77.147c0-19.406-11.257-34.652-32.918-34.652c-11.085,0-21.83,5.371-31.188,11.781l2.085,2.771
			c10.049-7.1,20.441-11.087,29.103-11.087c17.85,0,29.457,12.82,29.457,31.187v31.879c0,2.078-0.872,4.504-2.6,7.102
			c-7.104,11.087-22.349,15.94-35.519,15.94c-13.34,0-25.64-9.531-25.64-24.081c0-16.808,18.883-22.177,33.609-22.177
			c5.828,0,11.113,0.221,16.963,1.402l0.601-3.252c-4.882-0.917-10.795-1.615-17.563-1.615c-15.592,0-37.079,6.236-37.079,25.642
			c0,15.418,12.824,27.546,29.109,27.546c14.03,0,28.935-5.198,38.118-16.979v8.316c0,3.639,2.251,6.759,6.234,6.931v-3.465
			C753.738,130.336,753.221,128.951,752.873,126.871z"/>
		<path d="M660.515,133.802V56.295h3.468v77.507H660.515z M669.183,43.233c0,3.728-3.022,6.75-6.745,6.75
			c-3.728,0-6.75-3.022-6.75-6.75c0-3.728,3.022-6.75,6.75-6.75C666.161,36.483,669.183,39.506,669.183,43.233z"/>
		<path d="M640.99,47.346c-18.364,0.694-30.491,13.169-34.999,29.628v56.828h-3.461V43.881h3.461v23.218
			c7.451-14.555,19.229-23.218,34.999-23.218V47.346z"/>
		<path d="M506.455,129.645c-0.174,0.171-6.931,5.024-16.459,5.024c-8.316,0-15.596-5.545-15.596-13.861V47.346h-12.991v-3.465
			h12.991V12.522h3.465v31.359h21.659v3.465h-21.659v73.462c0.521,6.757,6.065,10.393,12.131,10.393
			c7.969,0,14.206-4.157,14.555-4.33L506.455,129.645z"/>
		<path d="M448.506,126.871V77.147c0-19.406-11.264-34.652-32.922-34.652c-11.087,0-21.828,5.371-31.183,11.781l2.077,2.771
			c10.049-7.1,20.445-11.087,29.105-11.087c17.847,0,29.455,12.82,29.455,31.187v31.879c0,2.078-0.867,4.504-2.6,7.102
			c-7.099,11.087-22.348,15.94-35.515,15.94c-13.341,0-25.641-9.531-25.641-24.081c0-16.808,18.883-22.177,33.609-22.177
			c5.831,0,11.116,0.221,16.963,1.402l0.601-3.252c-4.884-0.917-10.794-1.615-17.563-1.615c-15.594,0-37.074,6.236-37.074,25.642
			c0,15.418,12.817,27.546,29.105,27.546c14.034,0,28.934-5.198,38.115-16.979v8.316c0,3.639,2.253,6.759,6.236,6.931v-3.465
			C449.372,130.336,448.849,128.951,448.506,126.871z"/>
		<path d="M356.344,133.802V18.414l-54.574,91.131h-2.771l-54.577-91.131v115.388h-3.465V10.792h2.771l56.656,94.594l56.654-94.594
			h2.774v123.01H356.344z"/>
	</g>
	<g>
		<path fill="#FFFFFF" d="M234.856,64.442c-7.327-7.423-17.498-12.032-28.751-12.032c-12.143,0-23.026,5.362-30.435,13.837
			c-7.409-8.476-18.292-13.837-30.435-13.837c-5.23,0-10.222,1.003-14.811,2.811c1.81-4.588,2.813-9.578,2.813-14.808
			C133.238,18.093,115.144,0,92.825,0C70.504,0,52.41,18.093,52.41,40.413c0,5.23,1.005,10.22,2.813,14.808
			c-4.588-1.808-9.58-2.811-14.811-2.811C18.094,52.41,0,70.505,0,92.821c0,22.323,18.094,40.416,40.413,40.416
			c22.32,0,40.415-18.093,40.415-40.416c0-5.228-1.005-10.217-2.813-14.806c4.588,1.805,9.58,2.811,14.811,2.811
			c5.229,0,10.222-1.006,14.81-2.811c-1.809,4.588-2.812,9.578-2.812,14.806c0,22.323,18.093,40.416,40.413,40.416
			c12.143,0,23.026-5.359,30.435-13.84c7.409,8.48,18.292,13.84,30.435,13.84c11.254,0,21.424-4.607,28.751-12.03V64.442z"/>
		<g>
			<path fill="#5CA2CC" d="M78.455,47.149c-0.962-2.044-1.517-4.326-1.517-6.736c0-8.773,7.113-15.887,15.887-15.887
				s15.886,7.113,15.886,15.887c0,2.565-0.622,4.98-1.702,7.125l15.707,15.706c4.844-6.333,7.728-14.243,7.728-22.831
				c0-20.775-16.843-37.619-37.618-37.619c-20.775,0-37.617,16.843-37.617,37.619c0,8.44,2.78,16.233,7.476,22.51L78.455,47.149z"/>
			<path fill="#5CA2CC" d="M99.951,54.595c-2.146,1.081-4.561,1.705-7.126,1.705c-2.255,0-4.396-0.479-6.338-1.322L70.66,70.801
				c6.217,4.542,13.875,7.23,22.165,7.23c8.588,0,16.499-2.886,22.833-7.73L99.951,54.595z"/>
		</g>
		<path fill="#73C055" d="M145.235,55.205c-5.953,0-11.568,1.414-16.569,3.878c-1.137,2.175-2.462,4.231-3.962,6.152l13.406,13.404
			c2.143-1.081,4.558-1.705,7.125-1.705c8.773,0,15.887,7.114,15.887,15.887c0,8.773-7.113,15.887-15.887,15.887
			s-15.887-7.113-15.887-15.887c0-2.565,0.622-4.979,1.702-7.125l-13.404-13.404c-1.919,1.498-3.978,2.825-6.152,3.96
			c-2.464,5.003-3.877,10.616-3.877,16.569c0,20.778,16.842,37.619,37.617,37.619c20.775,0,37.619-16.841,37.619-37.619
			C182.854,72.046,166.01,55.205,145.235,55.205z"/>
		<path fill="#9E53A0" d="M68.656,72.808L54.977,86.486c0.846,1.941,1.323,4.082,1.323,6.335c0,8.773-7.113,15.887-15.887,15.887
			s-15.885-7.113-15.885-15.887c0-8.773,7.112-15.887,15.885-15.887c2.413,0,4.691,0.556,6.741,1.52l13.538-13.54
			c-1.397-1.829-2.64-3.784-3.714-5.845c-5.001-2.458-10.614-3.864-16.564-3.864c-20.775,0-37.616,16.841-37.616,37.616
			c0,20.778,16.841,37.619,37.616,37.619c20.776,0,37.617-16.841,37.617-37.619c0-5.948-1.402-11.561-3.862-16.562
			C72.235,75.251,70.388,74.102,68.656,72.808z"/>
		<path fill="#F0824B" d="M232.455,65.997c-6.785-6.668-16.084-10.792-26.351-10.792c-11.472,0-21.741,5.144-28.639,13.242
			c5.134,6.776,8.182,15.219,8.182,24.374c0,9.161-3.048,17.603-8.182,24.379c6.897,8.098,17.167,13.24,28.639,13.24
			c10.267,0,19.565-4.124,26.351-10.792V65.997z M206.104,108.708c-8.776,0-15.884-7.113-15.884-15.887
			c0-8.773,7.108-15.887,15.884-15.887c8.773,0,15.887,7.114,15.887,15.887C221.991,101.594,214.878,108.708,206.104,108.708z"/>
	</g>
</g>
</svg>
