<svg id="Layer_11" data-name="Layer 11" xmlns="http://www.w3.org/2000/svg" viewBox="0 0 20 20"><defs><style>.cls-1{fill:#231f20;}.cls-2{fill:#fff;}</style></defs><title>bookmark-icon</title><path class="cls-2" d="M10.28,3.81L12.1,7.49a0.32,0.32,0,0,0,.24.17L16.4,8.26a0.32,0.32,0,0,1,.18.54l-2.94,2.87a0.32,0.32,0,0,0-.09.28l0.69,4a0.32,0.32,0,0,1-.46.33l-3.63-1.91a0.32,0.32,0,0,0-.3,0L6.22,16.33A0.32,0.32,0,0,1,5.76,16l0.69-4a0.32,0.32,0,0,0-.09-0.28L3.42,8.8A0.32,0.32,0,0,1,3.6,8.26l4.06-.59A0.32,0.32,0,0,0,7.9,7.49L9.72,3.81A0.32,0.32,0,0,1,10.28,3.81Z"/></svg>