<?xml version="1.0" encoding="utf-8"?>
<svg version="1.1" xmlns="http://www.w3.org/2000/svg" xmlns:xlink="http://www.w3.org/1999/xlink"
	 viewBox="0 0 10 16" style="enable-background:new 0 0 10 16;" xml:space="preserve">
<path fill="white" id="XMLID_6_" d="M9.1,6H8.5V3.5C8.5,1.5,6.9,0,5,0C3.1,0,1.6,1.5,1.6,3.5l0,2.5H0.9C0.4,6,0,6.4,0,6.9v8.2
	C0,15.6,0.4,16,0.9,16h8.2c0.5,0,0.9-0.4,0.9-0.9V6.9C10,6.4,9.6,6,9.1,6z M3.3,3.4c0-0.9,0.8-1.6,1.7-1.6c0.9,0,1.7,0.8,1.7,1.7V6
	H3.3V3.4z"/>
</svg>
