<svg width="30" height="30" xmlns="http://www.w3.org/2000/svg">
 <g>
  <g>
   <path d="m17.39,14l1.61,1.61l0,-1.61l-1.61,0zm2.61,-4l-4,0l0,2l4,0c1.71,0 3,1.39 3,2.95c0,1.27 -0.77,2.37 -1.87,2.95l1.4,1.4c1.52,-0.94 2.47,-2.51 2.47,-4.3c0,-2.76 -2.24,-5 -5,-5zm-15,-2.73l3.1,3.1c-1.81,0.75 -3.1,2.54 -3.1,4.63c0,2.76 2.24,5 5,5l4,0l0,-2l-4,0c-1.71,0 -3,-1.39 -3,-2.985c0,-1.6 1.21,-2.9 2.76,-3l1.97,1.985l-0.73,0l0,2l2.73,0l2.27,2.27l0,1.73l1.73,0l4.01,4.01l1.41,-1.41l-16.74,-16.74l-1.41,1.41z" fill="#000"/>
   <path d="m3,3l24,0l0,24l-24,0l0,-24z" fill="none"/>
  </g>
 </g>
</svg>