<?xml version="1.0" encoding="utf-8"?>
<!-- Generator: Adobe Illustrator 19.1.0, SVG Export Plug-In . SVG Version: 6.00 Build 0)  -->
<svg version="1.1" id="Layer_2" xmlns="http://www.w3.org/2000/svg" xmlns:xlink="http://www.w3.org/1999/xlink" x="0px" y="0px"
	 viewBox="0 0 32 32" style="enable-background:new 0 0 32 32;" xml:space="preserve">
<style type="text/css">
	.st0{fill:none;stroke:#000000;stroke-linecap:square;stroke-miterlimit:10;}
</style>
<line class="st0" x1="14.9" y1="9.2" x2="26.5" y2="9.2"/>
<line class="st0" x1="14.9" y1="16" x2="26.5" y2="16"/>
<line class="st0" x1="14.9" y1="22.8" x2="26.5" y2="22.8"/>
<g>
	<path d="M6.3,9.5h1.2V5.7H6.5V5.3C7,5.2,7.3,5.1,7.6,4.9h0.5v4.6h1.1V10H6.3V9.5z"/>
	<path d="M10.6,9.1c0.3,0,0.5,0.2,0.5,0.5c0,0.3-0.2,0.5-0.5,0.5c-0.3,0-0.5-0.2-0.5-0.5C10.2,9.3,10.4,9.1,10.6,9.1z"/>
	<path d="M6,16.6c1.5-1.5,2.4-2.4,2.4-3.3c0-0.6-0.3-1-1-1c-0.4,0-0.8,0.3-1.1,0.6L6,12.6c0.4-0.5,0.9-0.8,1.5-0.8
		c0.9,0,1.5,0.6,1.5,1.5c0,1-0.9,1.9-2.1,3.2c0.3,0,0.6,0,0.9,0h1.5V17H6V16.6z"/>
	<path d="M10.6,16.1c0.3,0,0.5,0.2,0.5,0.5c0,0.3-0.2,0.5-0.5,0.5c-0.3,0-0.5-0.2-0.5-0.5C10.2,16.3,10.4,16.1,10.6,16.1z"/>
	<path d="M6.2,22.9c0.3,0.3,0.7,0.6,1.3,0.6c0.6,0,1.1-0.4,1.1-0.9c0-0.6-0.4-1-1.6-1v-0.5c1.1,0,1.4-0.4,1.4-1
		c0-0.5-0.3-0.8-0.9-0.8c-0.4,0-0.8,0.2-1.1,0.5l-0.4-0.4c0.4-0.4,0.9-0.6,1.5-0.6c0.9,0,1.5,0.5,1.5,1.3c0,0.6-0.4,1-0.9,1.2v0
		c0.6,0.1,1.1,0.6,1.1,1.3c0,0.9-0.7,1.5-1.7,1.5c-0.8,0-1.3-0.3-1.7-0.7L6.2,22.9z"/>
	<path d="M10.6,23.1c0.3,0,0.5,0.2,0.5,0.5c0,0.3-0.2,0.5-0.5,0.5c-0.3,0-0.5-0.2-0.5-0.5C10.2,23.3,10.4,23.1,10.6,23.1z"/>
</g>
</svg>
